<!DOCTYPE svg PUBLIC "-//W3C//DTD SVG 1.1//EN" "http://www.w3.org/Graphics/SVG/1.1/DTD/svg11.dtd">
<!-- Uploaded to: SVG Repo, www.svgrepo.com, Transformed by: SVG Repo Mixer Tools -->
<svg width="800px" height="800px" viewBox="0 0 21 21" xmlns="http://www.w3.org/2000/svg" fill="#475569">
<g id="SVGRepo_bgCarrier" stroke-width="0"/>
<g id="SVGRepo_tracerCarrier" stroke-linecap="round" stroke-linejoin="round"/>
<g id="SVGRepo_iconCarrier">
<path d="m9.5.5h4c.5522847 0 1 .44771525 1 1v4c0 .55228475-.4477153 1-1 1h-4c-.55228475 0-1-.44771525-1-1v-4c0-.55228475.44771525-1 1-1zm-8 0h4c.55228475 0 1 .44771525 1 1v4c0 .55228475-.44771525 1-1 1h-4c-.55228475 0-1-.44771525-1-1v-4c0-.55228475.44771525-1 1-1zm8 8h4c.5522847 0 1 .44771525 1 1v4c0 .5522847-.4477153 1-1 1h-4c-.55228475 0-1-.4477153-1-1v-4c0-.55228475.44771525-1 1-1zm-8 0h4c.55228475 0 1 .44771525 1 1v4c0 .5522847-.44771525 1-1 1h-4c-.55228475 0-1-.4477153-1-1v-4c0-.55228475.44771525-1 1-1z" fill="none" stroke="#475569" stroke-linecap="round" stroke-linejoin="round" transform="translate(3 3)"/>
</g>
</svg>